<?xml version="1.0" encoding="iso-8859-1"?>
<!-- Generator: Adobe Illustrator 20.0.0, SVG Export Plug-In . SVG Version: 6.00 Build 0)  -->
<svg fill="#F14100" version="1.1" id="Layer_1_1_" xmlns="http://www.w3.org/2000/svg" xmlns:xlink="http://www.w3.org/1999/xlink" x="0px" y="0px"
	 viewBox="0 0 64 64" style="enable-background:new 0 0 64 64;" xml:space="preserve">
<g id="Guide">
	<g>
	</g>
	<g>
	</g>
	<g>
	</g>
	<g>
	</g>
	<g>
	</g>
	<g>
	</g>
	<g>
	</g>
	<g>
	</g>
	<g>
	</g>
	<g>
	</g>
	<g>
	</g>
	<g>
	</g>
	<g>
	</g>
	<g>
	</g>
	<g>
	</g>
	<g>
	</g>
	<g>
	</g>
	<g>
	</g>
	<g>
	</g>
	<g>
	</g>
	<g>
	</g>
	<g>
	</g>
	<g>
	</g>
	<g>
	</g>
	<g>
	</g>
	<g>
	</g>
	<g>
	</g>
	<g>
	</g>
	<g>
	</g>
	<g>
	</g>
	<g>
	</g>
	<g>
	</g>
	<g>
	</g>
	<g>
	</g>
	<g>
	</g>
	<g>
	</g>
</g>
<path d="M53,5.612c0-1.451-0.629-2.828-1.725-3.778c-1.096-0.949-2.548-1.375-3.982-1.172L9.858,6.01
	C9.811,6.017,9.772,6.042,9.727,6.055C9.669,6.072,9.613,6.086,9.56,6.113c-0.062,0.031-0.113,0.07-0.167,0.112
	c-0.046,0.036-0.091,0.068-0.13,0.111C9.218,6.387,9.185,6.444,9.151,6.503C9.122,6.553,9.09,6.599,9.07,6.653
	C9.045,6.72,9.038,6.791,9.028,6.863C9.021,6.91,9,6.952,9,7v56c0,0.553,0.447,1,1,1h40c2.757,0,5-2.243,5-5V11
	c0-1.629-0.795-3.065-2.004-3.978C52.996,7.014,53,7.008,53,7V5.612z M53,59c0,1.654-1.346,3-3,3H11V8h39c1.654,0,3,1.346,3,3V59z
	 M24.071,6l23.505-3.357c0.864-0.126,1.732,0.133,2.389,0.703C50.623,3.915,51,4.742,51,5.612V6h-1H24.071z"/>
<path d="M43,40H21c-1.654,0-3,1.346-3,3v10c0,1.654,1.346,3,3,3h22c1.654,0,3-1.346,3-3V43C46,41.346,44.654,40,43,40z M21,42h22
	c0.552,0,1,0.448,1,1v4h-8.142c-0.447-1.721-1.999-3-3.858-3s-3.411,1.279-3.858,3H20v-4C20,42.448,20.448,42,21,42z M34,48
	c0,1.103-0.897,2-2,2s-2-0.897-2-2s0.897-2,2-2S34,46.897,34,48z M43,54H21c-0.552,0-1-0.448-1-1v-4h8.142
	c0.447,1.721,1.999,3,3.858,3s3.411-1.279,3.858-3H44v4C44,53.552,43.552,54,43,54z"/>
<path d="M32,38c7.168,0,13-5.832,13-13s-5.832-13-13-13s-13,5.832-13,13S24.832,38,32,38z M24.026,32.555
	c1.101-0.442,2.231-0.79,3.38-1.041c0.731,1.737,1.616,3.194,2.361,4.257C27.528,35.307,25.543,34.155,24.026,32.555z
	 M34.706,19.172c-1.796,0.227-3.615,0.227-5.412,0c0.87-2.031,1.985-3.66,2.706-4.6C32.721,15.512,33.836,17.141,34.706,19.172z
	 M32,21.348c1.137,0,2.274-0.092,3.401-0.256c0.273,0.922,0.473,1.897,0.554,2.908h-7.911c0.082-1.011,0.281-1.986,0.554-2.908
	C29.726,21.256,30.863,21.348,32,21.348z M29.442,31.167c1.698-0.203,3.417-0.203,5.115,0C33.712,33.04,32.681,34.54,32,35.428
	C31.319,34.54,30.288,33.04,29.442,31.167z M28.704,29.253c-0.328-1.022-0.567-2.115-0.659-3.253h7.911
	c-0.092,1.138-0.332,2.231-0.659,3.253C33.11,28.944,30.89,28.944,28.704,29.253z M37.956,26h4.994
	c-0.163,1.799-0.764,3.47-1.69,4.915c-1.29-0.556-2.622-0.99-3.977-1.302C37.624,28.482,37.868,27.27,37.956,26z M37.956,24
	c-0.079-1.145-0.287-2.24-0.578-3.275c1.383-0.324,2.739-0.781,4.053-1.359c0.828,1.38,1.367,2.95,1.519,4.634H37.956z M26.044,24
	h-4.994c0.153-1.684,0.692-3.254,1.519-4.634c1.314,0.579,2.67,1.035,4.053,1.359C26.331,21.76,26.123,22.855,26.044,24z M26.044,26
	c0.088,1.27,0.331,2.482,0.674,3.613c-1.355,0.312-2.687,0.746-3.977,1.302c-0.927-1.445-1.527-3.116-1.69-4.915H26.044z
	 M34.233,35.771c0.745-1.063,1.63-2.521,2.361-4.257c1.149,0.251,2.279,0.599,3.38,1.041C38.457,34.155,36.472,35.307,34.233,35.771
	z M40.216,17.711c-1.132,0.471-2.298,0.841-3.483,1.108c-0.753-1.884-1.707-3.458-2.5-4.589
	C36.594,14.718,38.671,15.972,40.216,17.711z M29.767,14.229c-0.792,1.131-1.746,2.705-2.5,4.589
	c-1.185-0.267-2.35-0.637-3.483-1.108C25.329,15.972,27.406,14.718,29.767,14.229z"/>
<rect x="29" y="58" width="6" height="2"/>
</svg>
